# xmcd
#
# Track frame offsets:
#  150
#  17544
#  33151
#  50355
#  72163
#  92204
#  110585
#  126786
#  148341
#  163474
#
# Disc length: 2415 seconds
#
# Revision: 0
# Processed by: cddbd v1.5.1PL2 Copyright (c) Steve Scherf et al.
# Submitted via: Collectorz.com_Music_Collector 6.9
#
DISCID=8c096d0a
DTITLE=ZZ Top - Recycler
DYEAR=1990
DGENRE=Rock
TTITLE0=Concrete And Steel
TTITLE1=Lovething
TTITLE2=Penthouse Eyes
TTITLE3=Tell It
TTITLE4=My Head's In Mississippi
TTITLE5=Decision Or Collision
TTITLE6=Give It Up
TTITLE7=2000 Blues
TTITLE8=Burger Man
TTITLE9=Doubleback
EXTD=
EXTT0=
EXTT1=
EXTT2=
EXTT3=
EXTT4=
EXTT5=
EXTT6=
EXTT7=
EXTT8=
EXTT9=
PLAYORDER=
